<mxfile host="app.diagrams.net" modified="2021-12-16T09:56:02.392Z" agent="5.0 (Windows NT 10.0; Win64; x64) AppleWebKit/537.36 (KHTML, like Gecko) Chrome/96.0.4664.110 Safari/537.36" etag="tNXQEM4hOl3gEfpBZIme" version="15.9.6" type="github">
  <diagram name="Page-1" id="2c4490ee-f0b8-94ab-5012-d5dc3445f7a3">
    <mxGraphModel dx="2062" dy="1154" grid="1" gridSize="10" guides="1" tooltips="1" connect="0" arrows="1" fold="1" page="1" pageScale="1.5" pageWidth="1169" pageHeight="826" background="none" math="0" shadow="0">
      <root>
        <mxCell id="0" style=";html=1;" />
        <mxCell id="1" style=";html=1;" parent="0" />
        <mxCell id="OITDRaYUlJs_esaPdnm7-157" value="Month 1" style="strokeWidth=1;fontStyle=0;html=1;fontSize=16;" vertex="1" parent="1">
          <mxGeometry x="40" y="440" width="340.00000000000006" height="20" as="geometry" />
        </mxCell>
        <mxCell id="OITDRaYUlJs_esaPdnm7-158" value="" style="align=left;strokeColor=#CCCCCC;html=1;" vertex="1" parent="1">
          <mxGeometry x="40" y="480" width="340.00000000000006" height="20" as="geometry" />
        </mxCell>
        <mxCell id="OITDRaYUlJs_esaPdnm7-159" value="" style="align=left;strokeColor=#CCCCCC;html=1;" vertex="1" parent="1">
          <mxGeometry x="40" y="500" width="340.00000000000006" height="20" as="geometry" />
        </mxCell>
        <mxCell id="OITDRaYUlJs_esaPdnm7-160" value="" style="align=left;strokeColor=#CCCCCC;html=1;" vertex="1" parent="1">
          <mxGeometry x="40" y="520" width="340.00000000000006" height="20" as="geometry" />
        </mxCell>
        <mxCell id="OITDRaYUlJs_esaPdnm7-161" value="" style="align=left;strokeColor=#CCCCCC;html=1;" vertex="1" parent="1">
          <mxGeometry x="40" y="540" width="340.00000000000006" height="20" as="geometry" />
        </mxCell>
        <mxCell id="OITDRaYUlJs_esaPdnm7-162" value="" style="align=left;strokeColor=#CCCCCC;html=1;" vertex="1" parent="1">
          <mxGeometry x="40" y="560" width="340.00000000000006" height="20" as="geometry" />
        </mxCell>
        <mxCell id="OITDRaYUlJs_esaPdnm7-163" value="" style="align=left;strokeColor=#CCCCCC;html=1;" vertex="1" parent="1">
          <mxGeometry x="40" y="580" width="340.00000000000006" height="20" as="geometry" />
        </mxCell>
        <mxCell id="OITDRaYUlJs_esaPdnm7-164" value="" style="align=left;strokeColor=#CCCCCC;html=1;" vertex="1" parent="1">
          <mxGeometry x="40" y="600" width="340.00000000000006" height="20" as="geometry" />
        </mxCell>
        <mxCell id="OITDRaYUlJs_esaPdnm7-165" value="" style="align=left;strokeColor=#CCCCCC;html=1;" vertex="1" parent="1">
          <mxGeometry x="40" y="620" width="340.00000000000006" height="20" as="geometry" />
        </mxCell>
        <mxCell id="OITDRaYUlJs_esaPdnm7-166" value="" style="align=left;strokeColor=#CCCCCC;html=1;" vertex="1" parent="1">
          <mxGeometry x="40" y="640" width="340.00000000000006" height="19" as="geometry" />
        </mxCell>
        <mxCell id="OITDRaYUlJs_esaPdnm7-167" value="" style="align=left;strokeColor=#CCCCCC;html=1;" vertex="1" parent="1">
          <mxGeometry x="40" y="659" width="340.00000000000006" height="20" as="geometry" />
        </mxCell>
        <mxCell id="OITDRaYUlJs_esaPdnm7-168" value="" style="align=left;strokeColor=#CCCCCC;html=1;" vertex="1" parent="1">
          <mxGeometry x="40" y="679" width="340.00000000000006" height="20" as="geometry" />
        </mxCell>
        <mxCell id="OITDRaYUlJs_esaPdnm7-169" value="" style="align=left;strokeColor=#CCCCCC;html=1;" vertex="1" parent="1">
          <mxGeometry x="40" y="699" width="340.00000000000006" height="20" as="geometry" />
        </mxCell>
        <mxCell id="OITDRaYUlJs_esaPdnm7-170" value="" style="align=left;strokeColor=#CCCCCC;html=1;" vertex="1" parent="1">
          <mxGeometry x="40" y="719" width="340.00000000000006" height="20" as="geometry" />
        </mxCell>
        <mxCell id="OITDRaYUlJs_esaPdnm7-171" value="" style="align=left;strokeColor=#CCCCCC;html=1;" vertex="1" parent="1">
          <mxGeometry x="40" y="739" width="340.00000000000006" height="20" as="geometry" />
        </mxCell>
        <mxCell id="OITDRaYUlJs_esaPdnm7-172" value="" style="align=left;strokeColor=#CCCCCC;html=1;" vertex="1" parent="1">
          <mxGeometry x="40" y="759" width="340.00000000000006" height="20" as="geometry" />
        </mxCell>
        <mxCell id="OITDRaYUlJs_esaPdnm7-174" value="W1" style="strokeWidth=1;fontStyle=0;html=1;fontSize=16;" vertex="1" parent="1">
          <mxGeometry x="40" y="460" width="85.00000000000001" height="20" as="geometry" />
        </mxCell>
        <mxCell id="OITDRaYUlJs_esaPdnm7-175" value="W2" style="strokeWidth=1;fontStyle=0;html=1;fontSize=16;" vertex="1" parent="1">
          <mxGeometry x="125" y="460" width="85.00000000000001" height="20" as="geometry" />
        </mxCell>
        <mxCell id="OITDRaYUlJs_esaPdnm7-176" value="W3" style="strokeWidth=1;fontStyle=0;html=1;fontSize=16;" vertex="1" parent="1">
          <mxGeometry x="210" y="460" width="85.00000000000001" height="20" as="geometry" />
        </mxCell>
        <mxCell id="OITDRaYUlJs_esaPdnm7-177" value="W4" style="strokeWidth=1;fontStyle=0;html=1;fontSize=16;" vertex="1" parent="1">
          <mxGeometry x="295" y="460" width="85.00000000000001" height="20" as="geometry" />
        </mxCell>
        <mxCell id="OITDRaYUlJs_esaPdnm7-135" value="Month 2" style="strokeWidth=1;fontStyle=0;html=1;fontSize=16;" vertex="1" parent="1">
          <mxGeometry x="380" y="440" width="340.00000000000006" height="20" as="geometry" />
        </mxCell>
        <mxCell id="OITDRaYUlJs_esaPdnm7-136" value="" style="align=left;strokeColor=#CCCCCC;html=1;" vertex="1" parent="1">
          <mxGeometry x="380" y="480" width="340.00000000000006" height="20" as="geometry" />
        </mxCell>
        <mxCell id="OITDRaYUlJs_esaPdnm7-137" value="" style="align=left;strokeColor=#CCCCCC;html=1;" vertex="1" parent="1">
          <mxGeometry x="380" y="500" width="340.00000000000006" height="20" as="geometry" />
        </mxCell>
        <mxCell id="OITDRaYUlJs_esaPdnm7-138" value="" style="align=left;strokeColor=#CCCCCC;html=1;" vertex="1" parent="1">
          <mxGeometry x="380" y="520" width="340.00000000000006" height="20" as="geometry" />
        </mxCell>
        <mxCell id="OITDRaYUlJs_esaPdnm7-139" value="" style="align=left;strokeColor=#CCCCCC;html=1;" vertex="1" parent="1">
          <mxGeometry x="380" y="540" width="340.00000000000006" height="20" as="geometry" />
        </mxCell>
        <mxCell id="OITDRaYUlJs_esaPdnm7-140" value="" style="align=left;strokeColor=#CCCCCC;html=1;" vertex="1" parent="1">
          <mxGeometry x="380" y="560" width="340.00000000000006" height="20" as="geometry" />
        </mxCell>
        <mxCell id="OITDRaYUlJs_esaPdnm7-141" value="" style="align=left;strokeColor=#CCCCCC;html=1;" vertex="1" parent="1">
          <mxGeometry x="380" y="580" width="340.00000000000006" height="20" as="geometry" />
        </mxCell>
        <mxCell id="OITDRaYUlJs_esaPdnm7-142" value="" style="align=left;strokeColor=#CCCCCC;html=1;" vertex="1" parent="1">
          <mxGeometry x="380" y="600" width="340.00000000000006" height="20" as="geometry" />
        </mxCell>
        <mxCell id="OITDRaYUlJs_esaPdnm7-143" value="" style="align=left;strokeColor=#CCCCCC;html=1;" vertex="1" parent="1">
          <mxGeometry x="380" y="620" width="340.00000000000006" height="20" as="geometry" />
        </mxCell>
        <mxCell id="OITDRaYUlJs_esaPdnm7-144" value="" style="align=left;strokeColor=#CCCCCC;html=1;" vertex="1" parent="1">
          <mxGeometry x="380" y="640" width="340.00000000000006" height="19" as="geometry" />
        </mxCell>
        <mxCell id="OITDRaYUlJs_esaPdnm7-145" value="" style="align=left;strokeColor=#CCCCCC;html=1;" vertex="1" parent="1">
          <mxGeometry x="380" y="659" width="340.00000000000006" height="20" as="geometry" />
        </mxCell>
        <mxCell id="OITDRaYUlJs_esaPdnm7-146" value="" style="align=left;strokeColor=#CCCCCC;html=1;" vertex="1" parent="1">
          <mxGeometry x="380" y="679" width="340.00000000000006" height="20" as="geometry" />
        </mxCell>
        <mxCell id="OITDRaYUlJs_esaPdnm7-147" value="" style="align=left;strokeColor=#CCCCCC;html=1;" vertex="1" parent="1">
          <mxGeometry x="380" y="699" width="340.00000000000006" height="20" as="geometry" />
        </mxCell>
        <mxCell id="OITDRaYUlJs_esaPdnm7-148" value="" style="align=left;strokeColor=#CCCCCC;html=1;" vertex="1" parent="1">
          <mxGeometry x="380" y="719" width="340.00000000000006" height="20" as="geometry" />
        </mxCell>
        <mxCell id="OITDRaYUlJs_esaPdnm7-149" value="" style="align=left;strokeColor=#CCCCCC;html=1;" vertex="1" parent="1">
          <mxGeometry x="380" y="739" width="340.00000000000006" height="20" as="geometry" />
        </mxCell>
        <mxCell id="OITDRaYUlJs_esaPdnm7-150" value="" style="align=left;strokeColor=#CCCCCC;html=1;" vertex="1" parent="1">
          <mxGeometry x="380" y="759" width="340.00000000000006" height="20" as="geometry" />
        </mxCell>
        <mxCell id="OITDRaYUlJs_esaPdnm7-152" value="W1" style="strokeWidth=1;fontStyle=0;html=1;fontSize=16;" vertex="1" parent="1">
          <mxGeometry x="380" y="460" width="85.00000000000001" height="20" as="geometry" />
        </mxCell>
        <mxCell id="OITDRaYUlJs_esaPdnm7-153" value="W2" style="strokeWidth=1;fontStyle=0;html=1;fontSize=16;" vertex="1" parent="1">
          <mxGeometry x="465" y="460" width="85.00000000000001" height="20" as="geometry" />
        </mxCell>
        <mxCell id="OITDRaYUlJs_esaPdnm7-154" value="W3" style="strokeWidth=1;fontStyle=0;html=1;fontSize=16;" vertex="1" parent="1">
          <mxGeometry x="550" y="460" width="85.00000000000001" height="20" as="geometry" />
        </mxCell>
        <mxCell id="OITDRaYUlJs_esaPdnm7-155" value="W4" style="strokeWidth=1;fontStyle=0;html=1;fontSize=16;" vertex="1" parent="1">
          <mxGeometry x="635" y="460" width="85.00000000000001" height="20" as="geometry" />
        </mxCell>
        <mxCell id="OITDRaYUlJs_esaPdnm7-113" value="Month 3" style="strokeWidth=1;fontStyle=0;html=1;fontSize=16;" vertex="1" parent="1">
          <mxGeometry x="720" y="440" width="340.00000000000006" height="20" as="geometry" />
        </mxCell>
        <mxCell id="OITDRaYUlJs_esaPdnm7-114" value="" style="align=left;strokeColor=#CCCCCC;html=1;" vertex="1" parent="1">
          <mxGeometry x="720" y="480" width="340.00000000000006" height="20" as="geometry" />
        </mxCell>
        <mxCell id="OITDRaYUlJs_esaPdnm7-115" value="" style="align=left;strokeColor=#CCCCCC;html=1;" vertex="1" parent="1">
          <mxGeometry x="720" y="500" width="340.00000000000006" height="20" as="geometry" />
        </mxCell>
        <mxCell id="OITDRaYUlJs_esaPdnm7-116" value="" style="align=left;strokeColor=#CCCCCC;html=1;" vertex="1" parent="1">
          <mxGeometry x="720" y="520" width="340.00000000000006" height="20" as="geometry" />
        </mxCell>
        <mxCell id="OITDRaYUlJs_esaPdnm7-117" value="" style="align=left;strokeColor=#CCCCCC;html=1;" vertex="1" parent="1">
          <mxGeometry x="720" y="540" width="340.00000000000006" height="20" as="geometry" />
        </mxCell>
        <mxCell id="OITDRaYUlJs_esaPdnm7-118" value="" style="align=left;strokeColor=#CCCCCC;html=1;" vertex="1" parent="1">
          <mxGeometry x="720" y="560" width="340.00000000000006" height="20" as="geometry" />
        </mxCell>
        <mxCell id="OITDRaYUlJs_esaPdnm7-119" value="" style="align=left;strokeColor=#CCCCCC;html=1;" vertex="1" parent="1">
          <mxGeometry x="720" y="580" width="340.00000000000006" height="20" as="geometry" />
        </mxCell>
        <mxCell id="OITDRaYUlJs_esaPdnm7-120" value="" style="align=left;strokeColor=#CCCCCC;html=1;" vertex="1" parent="1">
          <mxGeometry x="720" y="600" width="340.00000000000006" height="20" as="geometry" />
        </mxCell>
        <mxCell id="OITDRaYUlJs_esaPdnm7-121" value="" style="align=left;strokeColor=#CCCCCC;html=1;" vertex="1" parent="1">
          <mxGeometry x="720" y="620" width="340.00000000000006" height="20" as="geometry" />
        </mxCell>
        <mxCell id="OITDRaYUlJs_esaPdnm7-122" value="" style="align=left;strokeColor=#CCCCCC;html=1;" vertex="1" parent="1">
          <mxGeometry x="720" y="640" width="340.00000000000006" height="19" as="geometry" />
        </mxCell>
        <mxCell id="OITDRaYUlJs_esaPdnm7-123" value="" style="align=left;strokeColor=#CCCCCC;html=1;" vertex="1" parent="1">
          <mxGeometry x="720" y="659" width="340.00000000000006" height="20" as="geometry" />
        </mxCell>
        <mxCell id="OITDRaYUlJs_esaPdnm7-124" value="" style="align=left;strokeColor=#CCCCCC;html=1;" vertex="1" parent="1">
          <mxGeometry x="720" y="679" width="340.00000000000006" height="20" as="geometry" />
        </mxCell>
        <mxCell id="OITDRaYUlJs_esaPdnm7-125" value="" style="align=left;strokeColor=#CCCCCC;html=1;" vertex="1" parent="1">
          <mxGeometry x="720" y="699" width="340.00000000000006" height="20" as="geometry" />
        </mxCell>
        <mxCell id="OITDRaYUlJs_esaPdnm7-126" value="" style="align=left;strokeColor=#CCCCCC;html=1;" vertex="1" parent="1">
          <mxGeometry x="720" y="719" width="340.00000000000006" height="20" as="geometry" />
        </mxCell>
        <mxCell id="OITDRaYUlJs_esaPdnm7-127" value="" style="align=left;strokeColor=#CCCCCC;html=1;" vertex="1" parent="1">
          <mxGeometry x="720" y="739" width="340.00000000000006" height="20" as="geometry" />
        </mxCell>
        <mxCell id="OITDRaYUlJs_esaPdnm7-128" value="" style="align=left;strokeColor=#CCCCCC;html=1;" vertex="1" parent="1">
          <mxGeometry x="720" y="759" width="340.00000000000006" height="20" as="geometry" />
        </mxCell>
        <mxCell id="OITDRaYUlJs_esaPdnm7-130" value="W1" style="strokeWidth=1;fontStyle=0;html=1;fontSize=16;" vertex="1" parent="1">
          <mxGeometry x="720" y="460" width="85.00000000000001" height="20" as="geometry" />
        </mxCell>
        <mxCell id="OITDRaYUlJs_esaPdnm7-131" value="W2" style="strokeWidth=1;fontStyle=0;html=1;fontSize=16;" vertex="1" parent="1">
          <mxGeometry x="805" y="460" width="85.00000000000001" height="20" as="geometry" />
        </mxCell>
        <mxCell id="OITDRaYUlJs_esaPdnm7-132" value="W3" style="strokeWidth=1;fontStyle=0;html=1;fontSize=16;" vertex="1" parent="1">
          <mxGeometry x="890" y="460" width="85.00000000000001" height="20" as="geometry" />
        </mxCell>
        <mxCell id="OITDRaYUlJs_esaPdnm7-133" value="W4" style="strokeWidth=1;fontStyle=0;html=1;fontSize=16;" vertex="1" parent="1">
          <mxGeometry x="975" y="460" width="85.00000000000001" height="20" as="geometry" />
        </mxCell>
        <mxCell id="7a8b956e7d50b54d-109" value="Month 4" style="strokeWidth=1;fontStyle=0;html=1;fontSize=16;" parent="1" vertex="1">
          <mxGeometry x="1060" y="440" width="340.00000000000006" height="20" as="geometry" />
        </mxCell>
        <mxCell id="7a8b956e7d50b54d-225" value="" style="align=left;strokeColor=#CCCCCC;html=1;" parent="1" vertex="1">
          <mxGeometry x="1060" y="480" width="340.00000000000006" height="20" as="geometry" />
        </mxCell>
        <mxCell id="7a8b956e7d50b54d-226" value="" style="align=left;strokeColor=#CCCCCC;html=1;" parent="1" vertex="1">
          <mxGeometry x="1060" y="500" width="340.00000000000006" height="20" as="geometry" />
        </mxCell>
        <mxCell id="7a8b956e7d50b54d-227" value="" style="align=left;strokeColor=#CCCCCC;html=1;" parent="1" vertex="1">
          <mxGeometry x="1060" y="520" width="340.00000000000006" height="20" as="geometry" />
        </mxCell>
        <mxCell id="7a8b956e7d50b54d-228" value="" style="align=left;strokeColor=#CCCCCC;html=1;" parent="1" vertex="1">
          <mxGeometry x="1060" y="540" width="340.00000000000006" height="20" as="geometry" />
        </mxCell>
        <mxCell id="7a8b956e7d50b54d-229" value="" style="align=left;strokeColor=#CCCCCC;html=1;" parent="1" vertex="1">
          <mxGeometry x="1060" y="560" width="340.00000000000006" height="20" as="geometry" />
        </mxCell>
        <mxCell id="7a8b956e7d50b54d-230" value="" style="align=left;strokeColor=#CCCCCC;html=1;" parent="1" vertex="1">
          <mxGeometry x="1060" y="580" width="340.00000000000006" height="20" as="geometry" />
        </mxCell>
        <mxCell id="7a8b956e7d50b54d-231" value="" style="align=left;strokeColor=#CCCCCC;html=1;" parent="1" vertex="1">
          <mxGeometry x="1060" y="600" width="340.00000000000006" height="20" as="geometry" />
        </mxCell>
        <mxCell id="7a8b956e7d50b54d-232" value="" style="align=left;strokeColor=#CCCCCC;html=1;" parent="1" vertex="1">
          <mxGeometry x="1060" y="620" width="340.00000000000006" height="20" as="geometry" />
        </mxCell>
        <mxCell id="7a8b956e7d50b54d-233" value="" style="align=left;strokeColor=#CCCCCC;html=1;" parent="1" vertex="1">
          <mxGeometry x="1060" y="640" width="340.00000000000006" height="19" as="geometry" />
        </mxCell>
        <mxCell id="7a8b956e7d50b54d-234" value="" style="align=left;strokeColor=#CCCCCC;html=1;" parent="1" vertex="1">
          <mxGeometry x="1060" y="659" width="340.00000000000006" height="20" as="geometry" />
        </mxCell>
        <mxCell id="7a8b956e7d50b54d-235" value="" style="align=left;strokeColor=#CCCCCC;html=1;" parent="1" vertex="1">
          <mxGeometry x="1060" y="679" width="340.00000000000006" height="20" as="geometry" />
        </mxCell>
        <mxCell id="7a8b956e7d50b54d-236" value="" style="align=left;strokeColor=#CCCCCC;html=1;" parent="1" vertex="1">
          <mxGeometry x="1060" y="699" width="340.00000000000006" height="20" as="geometry" />
        </mxCell>
        <mxCell id="7a8b956e7d50b54d-237" value="" style="align=left;strokeColor=#CCCCCC;html=1;" parent="1" vertex="1">
          <mxGeometry x="1060" y="719" width="340.00000000000006" height="20" as="geometry" />
        </mxCell>
        <mxCell id="7a8b956e7d50b54d-238" value="" style="align=left;strokeColor=#CCCCCC;html=1;" parent="1" vertex="1">
          <mxGeometry x="1060" y="739" width="340.00000000000006" height="20" as="geometry" />
        </mxCell>
        <mxCell id="7a8b956e7d50b54d-239" value="" style="align=left;strokeColor=#CCCCCC;html=1;" parent="1" vertex="1">
          <mxGeometry x="1060" y="759" width="340.00000000000006" height="20" as="geometry" />
        </mxCell>
        <mxCell id="7a8b956e7d50b54d-110" value="W1" style="strokeWidth=1;fontStyle=0;html=1;fontSize=16;" parent="1" vertex="1">
          <mxGeometry x="1060" y="460" width="85.00000000000001" height="20" as="geometry" />
        </mxCell>
        <mxCell id="7a8b956e7d50b54d-111" value="W2" style="strokeWidth=1;fontStyle=0;html=1;fontSize=16;" parent="1" vertex="1">
          <mxGeometry x="1145" y="460" width="85.00000000000001" height="20" as="geometry" />
        </mxCell>
        <mxCell id="7a8b956e7d50b54d-112" value="W3" style="strokeWidth=1;fontStyle=0;html=1;fontSize=16;" parent="1" vertex="1">
          <mxGeometry x="1230" y="460" width="85.00000000000001" height="20" as="geometry" />
        </mxCell>
        <mxCell id="7a8b956e7d50b54d-113" value="W4" style="strokeWidth=1;fontStyle=0;html=1;fontSize=16;" parent="1" vertex="1">
          <mxGeometry x="1315" y="460" width="85.00000000000001" height="20" as="geometry" />
        </mxCell>
        <mxCell id="OITDRaYUlJs_esaPdnm7-179" value="Month 5" style="strokeWidth=1;fontStyle=0;html=1;fontSize=16;" vertex="1" parent="1">
          <mxGeometry x="1400" y="440" width="340.00000000000006" height="20" as="geometry" />
        </mxCell>
        <mxCell id="OITDRaYUlJs_esaPdnm7-180" value="" style="align=left;strokeColor=#CCCCCC;html=1;" vertex="1" parent="1">
          <mxGeometry x="1400" y="480" width="340.00000000000006" height="20" as="geometry" />
        </mxCell>
        <mxCell id="OITDRaYUlJs_esaPdnm7-181" value="" style="align=left;strokeColor=#CCCCCC;html=1;" vertex="1" parent="1">
          <mxGeometry x="1400" y="500" width="340.00000000000006" height="20" as="geometry" />
        </mxCell>
        <mxCell id="OITDRaYUlJs_esaPdnm7-182" value="" style="align=left;strokeColor=#CCCCCC;html=1;" vertex="1" parent="1">
          <mxGeometry x="1400" y="520" width="340.00000000000006" height="20" as="geometry" />
        </mxCell>
        <mxCell id="OITDRaYUlJs_esaPdnm7-183" value="" style="align=left;strokeColor=#CCCCCC;html=1;" vertex="1" parent="1">
          <mxGeometry x="1400" y="540" width="340.00000000000006" height="20" as="geometry" />
        </mxCell>
        <mxCell id="OITDRaYUlJs_esaPdnm7-184" value="" style="align=left;strokeColor=#CCCCCC;html=1;" vertex="1" parent="1">
          <mxGeometry x="1400" y="560" width="340.00000000000006" height="20" as="geometry" />
        </mxCell>
        <mxCell id="OITDRaYUlJs_esaPdnm7-185" value="" style="align=left;strokeColor=#CCCCCC;html=1;" vertex="1" parent="1">
          <mxGeometry x="1400" y="580" width="340.00000000000006" height="20" as="geometry" />
        </mxCell>
        <mxCell id="OITDRaYUlJs_esaPdnm7-186" value="" style="align=left;strokeColor=#CCCCCC;html=1;" vertex="1" parent="1">
          <mxGeometry x="1400" y="600" width="340.00000000000006" height="20" as="geometry" />
        </mxCell>
        <mxCell id="OITDRaYUlJs_esaPdnm7-187" value="" style="align=left;strokeColor=#CCCCCC;html=1;" vertex="1" parent="1">
          <mxGeometry x="1400" y="620" width="340.00000000000006" height="20" as="geometry" />
        </mxCell>
        <mxCell id="OITDRaYUlJs_esaPdnm7-188" value="" style="align=left;strokeColor=#CCCCCC;html=1;" vertex="1" parent="1">
          <mxGeometry x="1400" y="640" width="340" height="19" as="geometry" />
        </mxCell>
        <mxCell id="OITDRaYUlJs_esaPdnm7-189" value="" style="align=left;strokeColor=#CCCCCC;html=1;" vertex="1" parent="1">
          <mxGeometry x="1400" y="659" width="340.00000000000006" height="20" as="geometry" />
        </mxCell>
        <mxCell id="OITDRaYUlJs_esaPdnm7-190" value="" style="align=left;strokeColor=#CCCCCC;html=1;" vertex="1" parent="1">
          <mxGeometry x="1400" y="679" width="340.00000000000006" height="20" as="geometry" />
        </mxCell>
        <mxCell id="OITDRaYUlJs_esaPdnm7-191" value="" style="align=left;strokeColor=#CCCCCC;html=1;" vertex="1" parent="1">
          <mxGeometry x="1400" y="699" width="340.00000000000006" height="20" as="geometry" />
        </mxCell>
        <mxCell id="OITDRaYUlJs_esaPdnm7-192" value="" style="align=left;strokeColor=#CCCCCC;html=1;" vertex="1" parent="1">
          <mxGeometry x="1400" y="719" width="340.00000000000006" height="20" as="geometry" />
        </mxCell>
        <mxCell id="OITDRaYUlJs_esaPdnm7-193" value="" style="align=left;strokeColor=#CCCCCC;html=1;" vertex="1" parent="1">
          <mxGeometry x="1400" y="739" width="340.00000000000006" height="20" as="geometry" />
        </mxCell>
        <mxCell id="OITDRaYUlJs_esaPdnm7-194" value="" style="align=left;strokeColor=#CCCCCC;html=1;" vertex="1" parent="1">
          <mxGeometry x="1400" y="759" width="340.00000000000006" height="20" as="geometry" />
        </mxCell>
        <mxCell id="OITDRaYUlJs_esaPdnm7-196" value="W1" style="strokeWidth=1;fontStyle=0;html=1;fontSize=16;" vertex="1" parent="1">
          <mxGeometry x="1400" y="460" width="85.00000000000001" height="20" as="geometry" />
        </mxCell>
        <mxCell id="OITDRaYUlJs_esaPdnm7-197" value="W2" style="strokeWidth=1;fontStyle=0;html=1;fontSize=16;" vertex="1" parent="1">
          <mxGeometry x="1485" y="460" width="85.00000000000001" height="20" as="geometry" />
        </mxCell>
        <mxCell id="OITDRaYUlJs_esaPdnm7-198" value="W3" style="strokeWidth=1;fontStyle=0;html=1;fontSize=16;" vertex="1" parent="1">
          <mxGeometry x="1570" y="460" width="85.00000000000001" height="20" as="geometry" />
        </mxCell>
        <mxCell id="OITDRaYUlJs_esaPdnm7-199" value="W4" style="strokeWidth=1;fontStyle=0;html=1;fontSize=16;" vertex="1" parent="1">
          <mxGeometry x="1655" y="460" width="85.00000000000001" height="20" as="geometry" />
        </mxCell>
        <mxCell id="OITDRaYUlJs_esaPdnm7-205" value="Implementation" style="strokeWidth=1;fontStyle=0;html=1;verticalAlign=middle;horizontal=0;fontSize=16;" vertex="1" parent="1">
          <mxGeometry y="480" width="40" height="160" as="geometry" />
        </mxCell>
        <mxCell id="OITDRaYUlJs_esaPdnm7-207" value="Writing" style="strokeWidth=1;fontStyle=0;html=1;horizontal=0;fontSize=16;" vertex="1" parent="1">
          <mxGeometry y="640" width="40" height="160" as="geometry" />
        </mxCell>
        <mxCell id="7a8b956e7d50b54d-358" value="Binary Decision Tree, Cutoff" style="align=center;strokeColor=#6c8ebf;html=1;fillColor=#dae8fc;" parent="1" vertex="1">
          <mxGeometry x="40" y="480" width="170" height="20" as="geometry" />
        </mxCell>
        <mxCell id="OITDRaYUlJs_esaPdnm7-215" value="Dummy Tree with Regr Loss" style="align=center;strokeColor=#6c8ebf;html=1;fillColor=#dae8fc;" vertex="1" parent="1">
          <mxGeometry x="210" y="500" width="170" height="20" as="geometry" />
        </mxCell>
        <mxCell id="OITDRaYUlJs_esaPdnm7-216" value="Add Regression Losses" style="align=center;strokeColor=#6c8ebf;html=1;fillColor=#dae8fc;" vertex="1" parent="1">
          <mxGeometry x="380" y="520" width="170" height="20" as="geometry" />
        </mxCell>
        <mxCell id="OITDRaYUlJs_esaPdnm7-217" value="Add Ranking Losses" style="align=center;strokeColor=#6c8ebf;html=1;fillColor=#dae8fc;" vertex="1" parent="1">
          <mxGeometry x="550" y="540" width="170" height="20" as="geometry" />
        </mxCell>
        <mxCell id="OITDRaYUlJs_esaPdnm7-218" value="Run and Database Connection" style="align=center;strokeColor=#6c8ebf;html=1;fillColor=#dae8fc;" vertex="1" parent="1">
          <mxGeometry x="720" y="560" width="170" height="20" as="geometry" />
        </mxCell>
        <mxCell id="OITDRaYUlJs_esaPdnm7-220" value="Modify Proposal for Thesis" style="align=center;strokeColor=#6c8ebf;html=1;fillColor=#dae8fc;" vertex="1" parent="1">
          <mxGeometry x="40" y="640" width="340" height="19.5" as="geometry" />
        </mxCell>
        <mxCell id="OITDRaYUlJs_esaPdnm7-221" value="Write Basic Evaluation Part" style="align=center;strokeColor=#6c8ebf;html=1;fillColor=#dae8fc;" vertex="1" parent="1">
          <mxGeometry x="380" y="659.5" width="340" height="20" as="geometry" />
        </mxCell>
        <mxCell id="OITDRaYUlJs_esaPdnm7-222" value="Implement evaluation metrics" style="align=left;strokeColor=#6c8ebf;html=1;fillColor=#dae8fc;" vertex="1" parent="1">
          <mxGeometry x="1060" y="600" width="170" height="20" as="geometry" />
        </mxCell>
        <mxCell id="OITDRaYUlJs_esaPdnm7-224" value="Research Evaluation Structure" style="align=center;strokeColor=#6c8ebf;html=1;fillColor=#dae8fc;" vertex="1" parent="1">
          <mxGeometry x="720" y="679.5" width="170" height="20" as="geometry" />
        </mxCell>
        <mxCell id="OITDRaYUlJs_esaPdnm7-226" value="Proofreadiong and Buffer" style="align=left;strokeColor=#6c8ebf;html=1;fillColor=#dae8fc;" vertex="1" parent="1">
          <mxGeometry x="1400" y="758.5" width="340" height="20" as="geometry" />
        </mxCell>
        <mxCell id="OITDRaYUlJs_esaPdnm7-228" value="Main Part" style="align=center;strokeColor=#6c8ebf;html=1;fillColor=#dae8fc;" vertex="1" parent="1">
          <mxGeometry x="890" y="699" width="170" height="20" as="geometry" />
        </mxCell>
        <mxCell id="OITDRaYUlJs_esaPdnm7-230" value="Implement evaluation metrics" style="align=center;strokeColor=#6c8ebf;html=1;fillColor=#dae8fc;" vertex="1" parent="1">
          <mxGeometry x="1060" y="599.5" width="170" height="20" as="geometry" />
        </mxCell>
        <mxCell id="OITDRaYUlJs_esaPdnm7-233" value="Implement Evaluation Metrics" style="align=center;strokeColor=#6c8ebf;html=1;fillColor=#dae8fc;" vertex="1" parent="1">
          <mxGeometry x="1060" y="599.5" width="170" height="20" as="geometry" />
        </mxCell>
        <mxCell id="OITDRaYUlJs_esaPdnm7-234" value="Run Experiments" style="align=center;strokeColor=#6c8ebf;html=1;fillColor=#dae8fc;" vertex="1" parent="1">
          <mxGeometry x="890" y="580.25" width="170" height="19.5" as="geometry" />
        </mxCell>
        <mxCell id="OITDRaYUlJs_esaPdnm7-235" value="Run and Database Connection" style="align=center;strokeColor=#6c8ebf;html=1;fillColor=#dae8fc;" vertex="1" parent="1">
          <mxGeometry x="720" y="560" width="170" height="20" as="geometry" />
        </mxCell>
        <mxCell id="OITDRaYUlJs_esaPdnm7-236" value="Add Ranking Losses" style="align=center;strokeColor=#6c8ebf;html=1;fillColor=#dae8fc;" vertex="1" parent="1">
          <mxGeometry x="550" y="540" width="170" height="20" as="geometry" />
        </mxCell>
        <mxCell id="OITDRaYUlJs_esaPdnm7-237" value="Add Regression Losses" style="align=center;strokeColor=#6c8ebf;html=1;fillColor=#dae8fc;" vertex="1" parent="1">
          <mxGeometry x="380" y="520" width="170" height="20" as="geometry" />
        </mxCell>
        <mxCell id="OITDRaYUlJs_esaPdnm7-238" value="Dummy Tree with Regr. Loss" style="align=center;strokeColor=#6c8ebf;html=1;fillColor=#dae8fc;" vertex="1" parent="1">
          <mxGeometry x="210" y="500" width="170" height="20" as="geometry" />
        </mxCell>
        <mxCell id="OITDRaYUlJs_esaPdnm7-239" value="Binary Decision Tree, Cutoff" style="align=center;strokeColor=#6c8ebf;html=1;fillColor=#dae8fc;" vertex="1" parent="1">
          <mxGeometry x="40" y="480" width="170" height="20" as="geometry" />
        </mxCell>
        <mxCell id="OITDRaYUlJs_esaPdnm7-240" value="Proofreadiong and Buffer" style="align=center;strokeColor=#6c8ebf;html=1;fillColor=#dae8fc;" vertex="1" parent="1">
          <mxGeometry x="1400" y="758.5" width="340" height="20" as="geometry" />
        </mxCell>
        <mxCell id="OITDRaYUlJs_esaPdnm7-241" value="Experiment Description" style="align=center;strokeColor=#6c8ebf;html=1;fillColor=#dae8fc;" vertex="1" parent="1">
          <mxGeometry x="1230" y="740" width="170" height="19" as="geometry" />
        </mxCell>
        <mxCell id="OITDRaYUlJs_esaPdnm7-242" value="Evaluation Process" style="align=center;strokeColor=#6c8ebf;html=1;fillColor=#dae8fc;" vertex="1" parent="1">
          <mxGeometry x="1060" y="720" width="170" height="20" as="geometry" />
        </mxCell>
        <mxCell id="OITDRaYUlJs_esaPdnm7-232" value="Run Evaluations" style="align=center;strokeColor=#6c8ebf;html=1;fillColor=#dae8fc;" vertex="1" parent="1">
          <mxGeometry x="1230" y="620.5" width="170" height="19.5" as="geometry" />
        </mxCell>
        <mxCell id="OITDRaYUlJs_esaPdnm7-204" value="" style="endArrow=none;html=1;rounded=0;entryX=0.994;entryY=0.95;entryDx=0;entryDy=0;entryPerimeter=0;startArrow=none;exitX=0.001;exitY=1.05;exitDx=0;exitDy=0;exitPerimeter=0;" edge="1" parent="1" source="OITDRaYUlJs_esaPdnm7-165" target="OITDRaYUlJs_esaPdnm7-187">
          <mxGeometry width="50" height="50" relative="1" as="geometry">
            <mxPoint y="639" as="sourcePoint" />
            <mxPoint x="860" y="530" as="targetPoint" />
          </mxGeometry>
        </mxCell>
      </root>
    </mxGraphModel>
  </diagram>
</mxfile>
